<?xml version="1.0" encoding="UTF-8"?>
<svg xmlns="http://www.w3.org/2000/svg" xmlns:xlink="http://www.w3.org/1999/xlink" width="535" height="179" viewBox="0 0 535.4001 179.5208" version="1.1">
  <g id="surface1">
    <path style=" stroke:none;fill-rule:evenodd;fill:rgb(92.939758%,10.978699%,14.118958%);fill-opacity:1;" d="M 39.269531 99.40625 L 39.269531 151.132812 L 31.5625 151.132812 L 31.5625 28.386719 L 37.832031 28.386719 C 41.957031 28.386719 45.714844 31.601562 47.859375 34.863281 C 52.855469 42.46875 53.589844 55.125 53.589844 63.957031 C 53.589844 72.820312 52.824219 85.375 47.863281 93.039062 C 45.929688 96.027344 42.878906 98.804688 39.269531 99.40625 Z M 86.90625 97.222656 L 98.90625 151.132812 L 90.960938 151.132812 L 82.066406 111.183594 L 82.066406 151.132812 L 74.359375 151.132812 L 74.359375 28.386719 L 80.625 28.386719 C 84.753906 28.386719 88.511719 31.601562 90.652344 34.863281 C 95.648438 42.46875 96.382812 55.125 96.382812 63.957031 C 96.382812 72.820312 95.617188 85.375 90.675781 93.011719 C 89.675781 94.636719 88.429688 96.089844 86.90625 97.222656 Z M 124.53125 36.09375 L 124.53125 79.996094 L 132.1875 79.996094 L 132.1875 87.539062 L 124.53125 87.539062 L 124.53125 143.425781 L 134.019531 143.425781 L 134.019531 151.132812 L 116.820312 151.132812 L 116.820312 28.386719 L 134.019531 28.386719 L 134.019531 36.09375 Z M 162.996094 36.09375 L 162.996094 151.132812 L 155.289062 151.132812 L 155.289062 36.09375 L 148.128906 36.09375 L 148.128906 28.386719 L 170.15625 28.386719 L 170.15625 36.09375 Z M 196.46875 36.09375 L 196.46875 151.132812 L 188.761719 151.132812 L 188.761719 36.09375 L 181.601562 36.09375 L 181.601562 28.386719 L 203.628906 28.386719 L 203.628906 36.09375 Z M 234.933594 103.839844 L 234.933594 151.132812 L 227.226562 151.132812 L 227.226562 103.839844 L 217.371094 28.386719 L 225.109375 28.386719 L 230.996094 74.6875 L 236.886719 28.386719 L 244.792969 28.386719 Z M 39.269531 36.722656 L 39.269531 91.355469 C 40.28125 90.597656 41.203125 89.332031 41.648438 88.578125 C 45.367188 82.316406 45.882812 70.980469 45.882812 63.957031 C 45.882812 56.96875 45.363281 45.695312 41.648438 39.476562 C 41.203125 38.726562 40.28125 37.476562 39.269531 36.722656 Z M 82.066406 36.722656 L 82.066406 91.355469 C 83.078125 90.597656 84 89.332031 84.445312 88.578125 C 88.160156 82.316406 88.675781 70.980469 88.675781 63.957031 C 88.675781 56.96875 88.160156 45.695312 84.445312 39.476562 C 83.996094 38.726562 83.078125 37.476562 82.066406 36.722656 "/>
    <path style=" stroke:none;fill-rule:nonzero;fill:rgb(92.939758%,10.978699%,14.118958%);fill-opacity:1;" d="M 33.003906 29.828125 L 33.003906 149.695312 L 37.832031 149.695312 L 37.832031 98.085938 C 38.664062 98.085938 42.992188 97.917969 46.65625 92.257812 C 50.316406 86.597656 52.148438 77.109375 52.148438 63.957031 C 52.148438 50.804688 50.316406 41.3125 46.65625 35.652344 C 42.992188 30.160156 38.664062 29.828125 37.832031 29.828125 Z M 37.832031 34.65625 C 37.832031 34.65625 47.320312 34.65625 47.320312 63.957031 C 47.320312 93.421875 37.832031 93.421875 37.832031 93.421875 Z M 75.800781 29.828125 L 75.800781 149.695312 L 80.625 149.695312 L 80.625 98.085938 L 92.113281 149.695312 L 97.109375 149.695312 L 85.289062 96.585938 C 86.621094 95.753906 88.117188 94.421875 89.449219 92.257812 C 93.113281 86.597656 94.945312 77.109375 94.945312 63.957031 C 94.945312 50.804688 93.113281 41.3125 89.449219 35.652344 C 85.789062 30.160156 81.460938 29.828125 80.625 29.828125 Z M 80.625 34.65625 C 80.625 34.65625 90.117188 34.65625 90.117188 63.957031 C 90.117188 93.421875 80.625 93.421875 80.625 93.421875 Z M 132.578125 29.828125 L 118.261719 29.828125 L 118.261719 149.695312 L 132.578125 149.695312 L 132.578125 144.867188 L 123.089844 144.867188 L 123.089844 86.097656 L 130.746094 86.097656 L 130.746094 81.4375 L 123.089844 81.4375 L 123.089844 34.65625 L 132.578125 34.65625 Z M 168.714844 29.828125 L 149.570312 29.828125 L 149.570312 34.65625 L 156.726562 34.65625 L 156.726562 149.695312 L 161.554688 149.695312 L 161.554688 34.65625 L 168.714844 34.65625 Z M 202.1875 29.828125 L 183.042969 29.828125 L 183.042969 34.65625 L 190.199219 34.65625 L 190.199219 149.695312 L 195.027344 149.695312 L 195.027344 34.65625 L 202.1875 34.65625 Z M 243.152344 29.828125 L 238.15625 29.828125 L 230.996094 86.097656 L 223.839844 29.828125 L 219.011719 29.828125 L 228.667969 103.746094 L 228.667969 149.695312 L 233.496094 149.695312 L 233.496094 103.746094 Z M 243.152344 29.828125 "/>
    <path style=" stroke:none;fill-rule:nonzero;fill:rgb(100%,100%,100%);fill-opacity:1;" d="M 283.355469 151.140625 L 283.355469 28.378906 L 305.101562 28.378906 C 313.753906 28.378906 320.476562 31.128906 325.269531 36.621094 C 330.066406 42.117188 332.460938 51.996094 332.460938 66.261719 L 332.460938 67.136719 C 332.460938 84.910156 328.136719 96.191406 319.484375 100.984375 L 334.039062 151.140625 L 319.660156 151.140625 L 305.980469 104.140625 L 297.386719 104.140625 L 297.386719 151.140625 Z M 318.605469 68.890625 L 318.605469 63.628906 C 318.605469 54.628906 317.410156 48.371094 315.011719 44.867188 C 312.613281 41.359375 309.3125 39.605469 305.101562 39.605469 L 297.386719 39.605469 L 297.386719 93.09375 L 305.101562 93.09375 C 314.105469 93.09375 318.605469 85.027344 318.605469 68.890625 Z M 412.007812 151.140625 L 406.574219 119.222656 L 381.84375 119.222656 L 376.582031 151.140625 L 362.554688 151.140625 L 385 28.378906 L 403.589844 28.378906 L 426.039062 151.140625 Z M 394.296875 46.09375 L 383.773438 108 L 404.644531 108 Z M 459.636719 151.140625 L 459.636719 28.378906 L 483.488281 28.378906 C 492.375 28.378906 499.214844 31.214844 504.007812 36.886719 C 508.800781 42.554688 511.199219 52.816406 511.199219 67.664062 L 511.199219 111.855469 C 511.199219 126.707031 508.800781 136.964844 504.007812 142.636719 C 499.214844 148.304688 492.375 151.140625 483.488281 151.140625 Z M 497.34375 115.015625 L 497.34375 64.683594 C 497.34375 47.964844 492.726562 39.605469 483.488281 39.605469 L 473.667969 39.605469 L 473.667969 140.09375 L 483.488281 140.09375 C 492.726562 140.09375 497.34375 131.734375 497.34375 115.015625 "/>
  </g>
</svg>
